<?xml version="1.0" encoding="UTF-8" standalone="no"?>
<svg
   xmlns:dc="http://purl.org/dc/elements/1.1/"
   xmlns:cc="http://creativecommons.org/ns#"
   xmlns:rdf="http://www.w3.org/1999/02/22-rdf-syntax-ns#"
   xmlns:svg="http://www.w3.org/2000/svg"
   xmlns="http://www.w3.org/2000/svg"
   xmlns:sodipodi="http://sodipodi.sourceforge.net/DTD/sodipodi-0.dtd"
   xmlns:inkscape="http://www.inkscape.org/namespaces/inkscape"
   width="256"
   height="256"
   viewBox="0 0 256 256"
   version="1.1"
   id="SVGRoot"
   sodipodi:docname="fusionc.svg"
   inkscape:version="1.0.2-2 (e86c870879, 2021-01-15)">
  <defs
     id="defs28" />
  <sodipodi:namedview
     id="base"
     pagecolor="#ffffff"
     bordercolor="#666666"
     borderopacity="1.0"
     inkscape:pageopacity="0.0"
     inkscape:pageshadow="2"
     inkscape:zoom="4"
     inkscape:cx="136.88955"
     inkscape:cy="124.51809"
     inkscape:document-units="px"
     inkscape:current-layer="layer1"
     inkscape:document-rotation="0"
     showgrid="true"
     inkscape:window-width="1920"
     inkscape:window-height="1057"
     inkscape:window-x="-8"
     inkscape:window-y="-8"
     inkscape:window-maximized="1">
    <inkscape:grid
       type="xygrid"
       id="grid37"
       spacingx="1"
       spacingy="1" />
  </sodipodi:namedview>
  <metadata
     id="metadata31">
    <rdf:RDF>
      <cc:Work
         rdf:about="">
        <dc:format>image/svg+xml</dc:format>
        <dc:type
           rdf:resource="http://purl.org/dc/dcmitype/StillImage" />
        <dc:title></dc:title>
      </cc:Work>
    </rdf:RDF>
  </metadata>
  <g
     inkscape:label="Layer 1"
     inkscape:groupmode="layer"
     id="layer1">
    <path
       style="fill:#333333;stroke-width:3.08802"
       d="m 170.19656,198.26444 c -0.99674,-0.99354 7.87229,-11.09771 14.27925,-20.72594 25.01537,-37.59252 34.8972,-64.73037 28.14797,-77.30096 -4.86288,-9.057234 -21.17193,-8.486892 -40.79854,1.42676 -20.42507,10.31697 -16.96498,5.2984 8.65552,-12.554191 26.09615,-18.183981 56.32272,-30.816826 67.21512,-28.091768 11.94396,2.988126 10.96772,19.985078 -2.6972,46.958759 -16.70337,32.97152 -69.54847,95.52415 -74.80212,90.28734 z M 1.5234726,175.35953 C -5.7772039,159.38768 13.556462,118.88933 51.0386,71.639879 65.06472,53.958767 72.212483,47.648415 73.9847,50.506714 c 1.558678,2.513914 -0.867678,7.814992 -5.376813,13.720266 -13.281577,17.393758 -29.365425,54.78291 -29.365425,68.26404 0,22.35139 14.1014,28.29526 39.679254,16.72516 20.840208,-9.42704 14.016624,-0.29154 -10.548989,14.12309 -37.652488,22.09378 -60.3769377,26.17989 -66.8492544,12.02026 z"
       id="path58"
       sodipodi:nodetypes="sssssscsssscssss" />
    <path
       style="fill:#b3b3b3;stroke-width:3.08802"
       d="m 136.53887,249.76593 c -22.15042,-16.1809 -89.51564,-41.20878 -99.866664,-69.00019 0,-6.45256 16.455494,0.26681 34.25003,10.99195 21.925269,13.21481 49.308484,24.32374 59.957344,24.32374 18.75881,0 25.49103,-16.45995 15.9965,-39.11069 -2.57404,-6.14079 -3.84113,-11.99258 -2.81574,-13.00399 2.16359,-2.1341 14.4559,12.493 20.25929,24.10734 2.18962,4.38209 5.55487,10.0485 7.47833,12.59203 1.92346,2.54352 5.2303,12.67035 7.34852,22.50405 3.34698,15.53814 3.20093,18.8689 -1.11537,25.43527 -6.19868,9.43006 -21.81352,9.86678 -41.49224,1.16049 z M 89.292348,78.619031 C 68.327254,46.305097 59.227427,13.373208 68.664216,3.9666843 81.168854,-8.4978498 121.49207,8.8022861 176.8512,50.382864 199.23084,67.192341 204.64938,73.942884 198.24083,77.890885 196.84951,78.748007 186.57003,74.4763 175.06339,67.60718 134.14411,43.179577 105.7227,38.2283 98.398571,54.251455 c -3.112617,6.809537 -1.134181,16.157384 8.313089,39.278216 5.23054,12.801009 -5.27383,3.809436 -17.419312,-14.91064 z"
       id="path74"
       sodipodi:nodetypes="ccsssssssscssssssss" />
    <ellipse
       style="fill:#ff0000;fill-opacity:1;stroke:#ff0000;stroke-width:10.9459;stroke-linejoin:bevel;stroke-opacity:1"
       id="path96"
       cx="127.50003"
       cy="132.125"
       rx="35.027042"
       ry="35.027027" />
  </g>
</svg>
