<?xml version="1.0" encoding="UTF-8" standalone="no"?>
<!-- Generator: Adobe Illustrator 22.0.1, SVG Export Plug-In . SVG Version: 6.00 Build 0)  -->

<svg
   version="1.1"
   id="Layer_1"
   x="0px"
   y="0px"
   viewBox="0 0 256.00001 256"
   xml:space="preserve"
   sodipodi:docname="tumblr.svg"
   width="256"
   height="256"
   inkscape:version="1.1.2 (0a00cf5339, 2022-02-04, custom)"
   xmlns:inkscape="http://www.inkscape.org/namespaces/inkscape"
   xmlns:sodipodi="http://sodipodi.sourceforge.net/DTD/sodipodi-0.dtd"
   xmlns:xlink="http://www.w3.org/1999/xlink"
   xmlns="http://www.w3.org/2000/svg"
   xmlns:svg="http://www.w3.org/2000/svg"><defs
   id="defs95"><inkscape:path-effect
   effect="powerclip"
   id="path-effect827"
   is_visible="true"
   lpeversion="1"
   inverse="true"
   flatten="false"
   hide_clip="false"
   message="Use fill-rule evenodd on &lt;b&gt;fill and stroke&lt;/b&gt; dialog if no flatten result after convert clip to paths." />
	
	
<clipPath
   clipPathUnits="userSpaceOnUse"
   id="clipPath756"><use
     x="0"
     y="0"
     xlink:href="#g752"
     id="use758" /></clipPath><clipPath
   clipPathUnits="userSpaceOnUse"
   id="clipPath768"><g
     inkscape:label="Clip"
     id="use770"><path
       class="st0"
       d="M 204.90524,6.343e-5 H 51.093684 C 22.983297,6.343e-5 -3.88e-5,22.983399 -3.88e-5,51.093787 V 204.90534 c 0,28.11039 22.9833358,51.09372 51.0937228,51.09372 H 204.90524 c 28.11039,0 51.09372,-22.98333 51.09372,-51.09372 V 51.093787 C 256.17576,22.983399 233.01563,6.343e-5 204.90524,6.343e-5 Z"
       id="path777"
       style="stroke-width:1" /><g
       id="g783"
       clip-path="url(#clipPath756)"><g
         inkscape:label="Clip"
         id="g781"><path
           class="st2"
           d="m 172.19818,207.73406 h -27.04961 c -24.2209,0 -42.43078,-12.55244 -42.43078,-42.43077 V 117.39187 H 80.618431 V 91.403022 C 104.83933,85.038406 115.09343,64.176608 116.331,46.14353 h 25.28167 v 41.193209 h 29.34795 v 30.055131 h -29.34795 v 41.72359 c 0,12.55244 6.36461,16.79552 16.26513,16.79552 h 14.32038 z"
           id="path779"
           style="stroke-width:1" /></g></g></g></clipPath><clipPath
   clipPathUnits="userSpaceOnUse"
   id="clipPath819"><g
     id="g825"
     clip-path="url(#clipPath756)"
     style="display:none"><g
       inkscape:label="Clip"
       id="g823"><path
         class="st2"
         d="m 172.19818,207.73406 h -27.04961 c -24.2209,0 -42.43078,-12.55244 -42.43078,-42.43077 V 117.39187 H 80.618431 V 91.403022 C 104.83933,85.038406 115.09343,64.176608 116.331,46.14353 h 25.28167 v 41.193209 h 29.34795 v 30.055131 h -29.34795 v 41.72359 c 0,12.55244 6.36461,16.79552 16.26513,16.79552 h 14.32038 z"
         id="path821"
         style="stroke-width:1" /></g></g><path
     id="lpe_path-effect827"
     class="powerclip"
     d="M -5.0000388,-4.9999366 H 260.99997 V 260.99906 H -5.0000388 Z M 172.19818,207.73406 V 175.91098 H 157.8778 c -9.90052,0 -16.26513,-4.24308 -16.26513,-16.79552 v -41.72359 h 29.34795 V 87.336739 H 141.61267 V 46.14353 H 116.331 c -1.23757,18.033078 -11.49167,38.894876 -35.712569,45.259492 v 25.988848 h 22.099359 v 47.91142 c 0,29.87833 18.20988,42.43077 42.43078,42.43077 z" /></clipPath></defs><sodipodi:namedview
   id="namedview93"
   pagecolor="#505050"
   bordercolor="#eeeeee"
   borderopacity="1"
   inkscape:pageshadow="0"
   inkscape:pageopacity="0"
   inkscape:pagecheckerboard="0"
   showgrid="false"
   width="90.200003px"
   inkscape:zoom="1.8101934"
   inkscape:cx="106.34223"
   inkscape:cy="172.90971"
   inkscape:window-width="1920"
   inkscape:window-height="1057"
   inkscape:window-x="-8"
   inkscape:window-y="-8"
   inkscape:window-maximized="1"
   inkscape:current-layer="Layer_1" />
<style
   type="text/css"
   id="style2">
	.st0{fill:#FFFFFF;}
	.st1{fill:#001935;}
	.st2{fill:#231F20;}
</style>

<text
   transform="translate(-1587.3539,-356.281)"
   id="text14"><tspan
     x="0"
     y="0"
     class="st0"
     style="font-size:45.8156px;font-family:MyriadPro-Regular"
     id="tspan6">Notes:</tspan><tspan
     x="0"
     y="110"
     class="st0"
     style="font-size:45.8156px;font-family:MyriadPro-Regular"
     id="tspan8">Always use the full wordmark</tspan><tspan
     x="0"
     y="164.89999"
     class="st0"
     style="font-size:45.8156px;font-family:MyriadPro-Regular"
     id="tspan10">unless you’re explicitly speaking to </tspan><tspan
     x="0"
     y="219.89999"
     class="st0"
     style="font-size:45.8156px;font-family:MyriadPro-Regular"
     id="tspan12">or marketing the iOS or Android app </tspan></text>





















<path
   class="st0"
   d="M 204.90524,6.343e-5 H 51.093684 C 22.983297,6.343e-5 -3.88e-5,22.983399 -3.88e-5,51.093787 V 204.90534 c 0,28.11039 22.9833358,51.09372 51.0937228,51.09372 H 204.90524 c 28.11039,0 51.09372,-22.98333 51.09372,-51.09372 V 51.093787 C 256.17576,22.983399 233.01563,6.343e-5 204.90524,6.343e-5 Z"
   id="path70"
   style="stroke-width:1"
   clip-path="url(#clipPath819)"
   inkscape:path-effect="#path-effect827"
   inkscape:original-d="M 204.90524,6.343e-5 H 51.093684 C 22.983297,6.343e-5 -3.88e-5,22.983399 -3.88e-5,51.093787 V 204.90534 c 0,28.11039 22.9833358,51.09372 51.0937228,51.09372 H 204.90524 c 28.11039,0 51.09372,-22.98333 51.09372,-51.09372 V 51.093787 C 256.17576,22.983399 233.01563,6.343e-5 204.90524,6.343e-5 Z" />




</svg>
