<?xml version="1.0" encoding="utf-8"?>
<!-- Generator: Adobe Illustrator 26.2.1, SVG Export Plug-In . SVG Version: 6.00 Build 0)  -->
<svg version="1.1"
	 id="svg2" inkscape:version="1.0.2-2 (e86c870879, 2021-01-15)" sodipodi:docname="yt_logo_mono_dark.svg" xmlns:cc="http://creativecommons.org/ns#" xmlns:dc="http://purl.org/dc/elements/1.1/" xmlns:inkscape="http://www.inkscape.org/namespaces/inkscape" xmlns:rdf="http://www.w3.org/1999/02/22-rdf-syntax-ns#" xmlns:sodipodi="http://sodipodi.sourceforge.net/DTD/sodipodi-0.dtd" xmlns:svg="http://www.w3.org/2000/svg"
	 xmlns="http://www.w3.org/2000/svg" xmlns:xlink="http://www.w3.org/1999/xlink" x="0px" y="0px" viewBox="0 0 256 256"
	 style="enable-background:new 0 0 256 256;" xml:space="preserve">
<style type="text/css">
	.st0{clip-path:url(#SVGID_00000155133312657981552410000010643009111689214365_);}
	.st1{fill:#FFFFFF;}
	.st2{font-family:'JetBrainsMono-Regular';}
	.st3{font-size:50px;}
</style>
<sodipodi:namedview  bordercolor="#666666" borderopacity="1" gridtolerance="10" guidetolerance="10" id="namedview4" inkscape:current-layer="g10" inkscape:cx="120.76721" inkscape:cy="116.41951" inkscape:pageopacity="0" inkscape:pageshadow="2" inkscape:window-height="1057" inkscape:window-maximized="1" inkscape:window-width="1920" inkscape:window-x="-8" inkscape:window-y="-8" inkscape:zoom="3.2562214" objecttolerance="10" pagecolor="#ffffff" showgrid="false">
	</sodipodi:namedview>
<g id="g10" transform="matrix(1.3333333,0,0,-1.3333333,0,340.15733)" inkscape:groupmode="layer" inkscape:label="yt_logo_mono_dark">
	<g id="g12" transform="matrix(1.5786689,0,0,1.5786689,-133.47567,-42.255425)">
		<g>
			<defs>
				<rect id="SVGID_1_" x="-303.9" y="-140.9" width="1157.7" height="537"/>
			</defs>
			<clipPath id="SVGID_00000148641708561360581600000008851820596712746378_">
				<use xlink:href="#SVGID_1_"  style="overflow:visible;"/>
			</clipPath>
			<g id="g14" style="clip-path:url(#SVGID_00000148641708561360581600000008851820596712746378_);">
				<g id="g20" transform="translate(133.1435,109.336)">
					<path id="path22" class="st1" d="M0.1-10.6v36.4L31.6,7.7L0.1-10.6z M70.4,36.9c-1.4,5.2-5.5,9.3-10.7,10.7
						c-9.5,2.5-47.5,2.5-47.5,2.5s-38,0-47.5-2.5c-5.2-1.4-9.3-5.5-10.7-10.7c-2.5-9.5-2.5-29.2-2.5-29.2s0-19.8,2.5-29.2
						c1.4-5.2,5.5-9.3,10.7-10.7c9.5-2.5,47.5-2.5,47.5-2.5s38,0,47.5,2.5c5.2,1.4,9.3,5.5,10.7,10.7C73-12.1,73,7.7,73,7.7
						S73,27.4,70.4,36.9"/>
				</g>
				<g id="g24" transform="translate(274.351,101.0558)">
					<path id="path26" class="st1" d="M0,0c0.7,1.7,1,4.6,1,8.5v16.6c0,3.8-0.3,6.6-1,8.4c-0.7,1.8-1.8,2.7-3.5,2.7
						c-1.6,0-2.8-0.9-3.4-2.7c-0.7-1.8-1-4.6-1-8.4V8.5c0-3.9,0.3-6.8,1-8.5c0.6-1.7,1.8-2.6,3.5-2.6C-1.8-2.6-0.7-1.7,0,0
						 M-13.5-8.3c-2.4,1.6-4.1,4.1-5.1,7.6c-1,3.4-1.5,8-1.5,13.6v7.7c0,5.7,0.6,10.3,1.7,13.8c1.2,3.5,3,6,5.4,7.6
						c2.5,1.6,5.7,2.4,9.7,2.4c3.9,0,7.1-0.8,9.5-2.4c2.4-1.6,4.1-4.2,5.2-7.6c1.1-3.4,1.7-8,1.7-13.8v-7.7c0-5.7-0.5-10.2-1.6-13.7
						c-1.1-3.4-2.8-6-5.2-7.6c-2.4-1.6-5.7-2.4-9.8-2.4C-7.7-10.8-11.1-10-13.5-8.3"/>
				</g>
				<g id="g28" transform="translate(446.9258,136.2003)">
					<path id="path30" class="st1" d="M0,0c-0.6-0.8-1-2-1.2-3.7C-1.4-5.4-1.5-8-1.5-11.5v-3.8h8.8v3.8c0,3.4-0.1,6-0.3,7.8
						C6.7-1.9,6.3-0.7,5.6,0C5,0.8,4.1,1.1,2.8,1.1C1.5,1.1,0.6,0.8,0,0 M-1.5-22.4v-2.7c0-3.4,0.1-6,0.3-7.7c0.2-1.7,0.6-3,1.3-3.7
						c0.6-0.8,1.6-1.2,3-1.2c1.8,0,3,0.7,3.7,2.1c0.7,1.4,1,3.7,1.1,7l10.3-0.6c0.1-0.5,0.1-1.1,0.1-1.9c0-4.9-1.3-8.6-4-11
						c-2.7-2.4-6.5-3.6-11.4-3.6c-5.9,0-10,1.9-12.4,5.6c-2.4,3.7-3.6,9.4-3.6,17.2v9.3c0,8,1.2,13.8,3.7,17.5
						c2.5,3.7,6.7,5.5,12.6,5.5c4.1,0,7.3-0.8,9.5-2.3c2.2-1.5,3.8-3.9,4.6-7c0.9-3.2,1.3-7.6,1.3-13.2v-9.1L-1.5-22.4z"/>
				</g>
				<g id="g32" transform="translate(231.6914,114.7833)">
					<path id="path34" class="st1" d="M0,0l-13.6,49.3h11.9L3,26.9c1.2-5.5,2.1-10.2,2.7-14.1h0.3c0.4,2.8,1.3,7.4,2.7,14l5,22.4
						h11.9L11.8,0v-23.6H0V0z"/>
				</g>
				<g id="g36" transform="translate(326.1357,144.4068)">
					<path id="path38" class="st1" d="M0,0v-53.3h-9.4l-1,6.5h-0.3c-2.5-4.9-6.4-7.4-11.5-7.4c-3.5,0-6.1,1.2-7.8,3.5
						c-1.7,2.3-2.5,5.9-2.5,10.9V0h12v-39.1c0-2.4,0.3-4.1,0.8-5.1c0.5-1,1.4-1.5,2.6-1.5c1,0,2,0.3,3,1c1,0.6,1.7,1.4,2.1,2.4V0H0z
						"/>
				</g>
				<g id="g40" transform="translate(387.6318,144.4068)">
					<path id="path42" class="st1" d="M0,0v-53.3h-9.4l-1,6.5h-0.3c-2.6-4.9-6.4-7.4-11.5-7.4c-3.5,0-6.1,1.2-7.8,3.5
						c-1.7,2.3-2.5,5.9-2.5,10.9V0h12v-39.1c0-2.4,0.3-4.1,0.8-5.1c0.5-1,1.4-1.5,2.6-1.5c1,0,2,0.3,3,1c1,0.6,1.7,1.4,2.1,2.4V0H0z
						"/>
				</g>
				<g id="g44" transform="translate(358.7138,154.3981)">
					<path id="path46" class="st1" d="M0,0h-11.9v-63.2h-11.7V0h-11.9v9.6H0V0z"/>
				</g>
				<g id="g48" transform="translate(416.3213,114.171)">
					<path id="path50" class="st1" d="M0,0c0-3.9-0.2-6.9-0.5-9.1c-0.3-2.2-0.9-3.8-1.6-4.7c-0.8-0.9-1.8-1.4-3-1.4
						c-1,0-1.9,0.2-2.7,0.7c-0.8,0.5-1.5,1.2-2,2.1v30.2c0.4,1.4,1.1,2.6,2.1,3.6c1,0.9,2.1,1.4,3.2,1.4c1.2,0,2.2-0.5,2.8-1.4
						c0.7-1,1.1-2.6,1.4-4.8C-0.1,14.2,0,11,0,6.9V0z M11,21.7c-0.7,3.4-1.9,5.8-3.5,7.3c-1.6,1.5-3.9,2.3-6.7,2.3
						c-2.2,0-4.3-0.6-6.2-1.9s-3.4-2.9-4.4-4.9h-0.1l0,28.1h-11.6V-23h9.9l1.2,5h0.3c0.9-1.8,2.3-3.2,4.2-4.3c1.9-1,3.9-1.6,6.2-1.6
						c4.1,0,7,1.9,8.9,5.6s2.9,9.6,2.9,17.5v8.4C12.1,13.7,11.7,18.4,11,21.7"/>
				</g>
			</g>
		</g>
	</g>
</g>
<text transform="matrix(1 0 0 1 56.1006 59.25)" class="st1 st2 st3">misc.</text>
</svg>
