<?xml version="1.0" encoding="UTF-8" standalone="no"?>
<!-- Uploaded to: SVG Repo, www.svgrepo.com, Generator: SVG Repo Mixer Tools -->

<svg
   fill="#000000"
   width="256"
   height="256"
   viewBox="0 0 614.4 614.4"
   version="1.1"
   id="svg4"
   sodipodi:docname="rss-svgrepo-com.svg"
   inkscape:version="1.2.2 (b0a8486541, 2022-12-01)"
   xmlns:inkscape="http://www.inkscape.org/namespaces/inkscape"
   xmlns:sodipodi="http://sodipodi.sourceforge.net/DTD/sodipodi-0.dtd"
   xmlns="http://www.w3.org/2000/svg"
   xmlns:svg="http://www.w3.org/2000/svg">
  <defs
     id="defs8" />
  <sodipodi:namedview
     id="namedview6"
     pagecolor="#505050"
     bordercolor="#eeeeee"
     borderopacity="1"
     inkscape:showpageshadow="0"
     inkscape:pageopacity="0"
     inkscape:pagecheckerboard="0"
     inkscape:deskcolor="#505050"
     showgrid="false"
     inkscape:zoom="0.65877767"
     inkscape:cx="273.23331"
     inkscape:cy="0"
     inkscape:window-width="1904"
     inkscape:window-height="1009"
     inkscape:window-x="8"
     inkscape:window-y="33"
     inkscape:window-maximized="0"
     inkscape:current-layer="svg4" />
  <path
     d="m 17.06656,201.26164 c 218.38528,0 396.0832,177.6591 396.0832,396.07227 V 614.4 H 282.3168 v -17.06609 c 0,-146.2574 -118.9888,-265.24292 -265.25024,-265.24292 H 0 V 201.26164 Z M 17.06656,0 C 346.4192,0 614.4,267.9734 614.4,597.31695 v 17.06609 H 483.56704 v -17.06609 c 0,-257.2217 -209.27168,-466.4876 -466.50048,-466.4876 H 0 V 0 Z M 85.5008,443.72119 c 46.96768,0 85.16288,38.19415 85.16288,85.16021 0,46.96606 -38.1952,85.19445 -85.16288,85.19445 -46.96768,0 -85.1968,-38.22839 -85.1968,-85.19445 0,-46.96606 38.22944,-85.16021 85.1968,-85.16021 z"
     fill-rule="evenodd"
     id="path2"
     style="stroke-width:0.3192;fill:#ffffff;fill-opacity:1;stroke-dasharray:none" />
</svg>
